<?xml version="1.0" standalone="no"?>
<!DOCTYPE svg PUBLIC "-//W3C//DTD SVG 20010904//EN"
 "http://www.w3.org/TR/2001/REC-SVG-20010904/DTD/svg10.dtd">
<svg version="1.0" xmlns="http://www.w3.org/2000/svg"
 width="100.000000pt" height="150.000000pt" viewBox="0 0 100.000000 150.000000"
 preserveAspectRatio="xMidYMid meet">

<g transform="translate(0.000000,150.000000) scale(0.100000,-0.100000)"
fill="#000000" stroke="none">
<path d="M499 1478 c-1 -7 -2 -40 -3 -73 l-1 -60 -32 3 c-21 1 -33 -2 -33 -10
0 -10 23 -13 85 -12 47 1 85 6 85 10 0 5 -15 9 -33 9 l-32 0 0 70 c0 58 -3 70
-17 73 -10 2 -18 -2 -19 -10z"/>
<path d="M488 1259 c-3 -63 -1 -72 13 -63 12 7 11 124 0 124 -5 0 -11 -27 -13
-61z"/>
<path d="M528 1314 c-5 -4 -8 -31 -8 -61 0 -40 4 -53 15 -53 16 0 18 21 7 83
-4 21 -10 35 -14 31z"/>
<path d="M482 1151 c-18 -5 -54 -16 -78 -26 l-46 -17 6 -47 7 -46 -22 33 c-22
33 -46 44 -35 16 4 -11 1 -14 -12 -10 -12 4 -29 -6 -54 -31 -40 -42 -98 -130
-98 -149 0 -7 16 -18 35 -24 52 -17 50 -28 -4 -22 -40 3 -49 1 -56 -14 -11
-30 -18 -186 -11 -248 l8 -57 34 20 c49 29 53 26 15 -13 -33 -34 -33 -35 -35
-140 0 -58 0 -106 2 -106 7 0 117 108 143 141 28 35 28 36 14 84 -8 26 -15 74
-15 107 0 55 -1 58 -25 58 -14 0 -25 5 -25 10 0 6 13 10 29 10 22 0 30 6 35
24 3 13 22 47 41 75 l36 52 -21 34 c-25 41 -17 45 20 10 l27 -26 44 21 c24 11
52 20 61 20 9 0 30 23 47 53 31 52 39 49 22 -10 l-9 -32 54 -7 54 -6 68 73
c38 41 83 91 101 111 l33 38 -27 10 c-37 14 -34 15 -83 -32 -25 -24 -43 -38
-40 -33 2 6 12 27 22 49 9 21 15 41 12 44 -10 9 -240 12 -274 3z"/>
<path d="M700 831 c-41 -38 -77 -67 -79 -66 -2 2 6 17 18 34 26 36 20 41 -59
48 -170 16 -296 -163 -249 -353 6 -24 14 -44 17 -44 3 0 15 8 26 17 l20 18
-18 -30 c-11 -16 -32 -47 -48 -67 -27 -34 -28 -38 -10 -38 19 0 70 25 184 89
42 23 67 31 90 28 29 -3 30 -5 11 -11 -12 -5 -27 -21 -33 -37 -7 -16 -20 -33
-28 -38 -39 -22 85 -127 211 -178 33 -13 60 -23 62 -21 1 2 -11 37 -28 78 -20
51 -32 100 -36 155 l-6 79 -40 23 c-22 12 -50 23 -63 23 -16 0 -21 4 -15 13 4
6 6 20 5 29 -3 16 -1 16 25 3 15 -8 42 -15 60 -15 25 0 36 -7 52 -34 12 -18
21 -44 21 -57 0 -18 8 -28 32 -37 17 -6 33 -11 34 -9 9 8 -32 151 -57 203 -29
59 -31 67 -27 163 1 56 3 101 3 101 0 0 -34 -31 -75 -69z"/>
<path d="M467 304 c-12 -125 -8 -192 13 -232 35 -67 35 -67 64 -19 22 40 26
57 26 130 0 69 -3 87 -18 100 -10 10 -21 17 -25 17 -3 0 -8 -28 -10 -62 l-3
-63 -2 76 c-2 58 -7 82 -20 100 -19 22 -19 22 -25 -47z"/>
</g>
</svg>
